<?xml version="1.0" encoding="UTF-8"?>
<svg xmlns="http://www.w3.org/2000/svg" xmlns:xlink="http://www.w3.org/1999/xlink" width="145.61545pt" height="116.8133pt" viewBox="0 0 145.61545 116.8133" version="1.1">
<defs>
<clipPath id="clip1">
  <path d="M 0 0 L 145.617188 0 L 145.617188 116.8125 L 0 116.8125 Z M 0 0 "/>
</clipPath>
<clipPath id="clip2">
  <path d="M 74 12 L 143.367188 12 L 143.367188 112.53125 L 74 112.53125 Z M 74 12 "/>
</clipPath>
<clipPath id="clip3">
  <path d="M 5 48 L 75 48 L 75 112.53125 L 5 112.53125 Z M 5 48 "/>
</clipPath>
<clipPath id="clip4">
  <path d="M 4.070312 112 L 6 112 L 6 112.53125 L 4.070312 112.53125 Z M 4.070312 112 "/>
</clipPath>
<clipPath id="clip5">
  <path d="M 74 64 L 143.367188 64 L 143.367188 112.53125 L 74 112.53125 Z M 74 64 "/>
</clipPath>
<clipPath id="clip6">
  <path d="M 4.070312 107 L 6 107 L 6 109 L 4.070312 109 Z M 4.070312 107 "/>
</clipPath>
</defs>
<g id="surface1">
<g clip-path="url(#clip1)" clip-rule="nonzero">
<rect x="0" y="0" width="145.61545" height="116.8133" style="fill:rgb(100%,100%,100%);fill-opacity:1;stroke:none;"/>
</g>
<g clip-path="url(#clip2)" clip-rule="nonzero">
<path style="fill:none;stroke-width:20;stroke-linecap:butt;stroke-linejoin:round;stroke:rgb(0%,0%,100%);stroke-opacity:1;stroke-miterlimit:10;" d="M 2264.992662 2043.324565 L 2287.547516 2140.059825 L 2309.225236 2235.040819 L 2331.654784 2329.14468 L 2354.209638 2420.86775 L 2376.639187 2510.836555 L 2399.19404 2596.670302 L 2420.87176 2678.368993 L 2443.301309 2756.684457 L 2465.856162 2829.98773 L 2488.285711 2897.526986 L 2510.840564 2960.054051 L 2532.518284 3015.814661 L 2554.947833 3065.059425 L 2577.502687 3107.537732 L 2600.05754 3142.497755 L 2622.487089 3169.939493 L 2644.164809 3189.988251 L 2666.719662 3202.518726 L 2689.149211 3205.776649 L 2711.704064 3202.518726 L 2734.133613 3189.988251 L 2756.688466 3169.939493 L 2778.366187 3142.497755 L 2800.795735 3107.537732 L 2823.350589 3065.059425 L 2845.780137 3015.814661 L 2868.334991 2960.054051 L 2890.012711 2897.526986 L 2912.44226 2829.98773 L 2934.997113 2756.684457 L 2957.551966 2678.368993 L 2979.981515 2596.670302 L 3001.659235 2510.836555 L 3024.214089 2420.86775 L 3046.643637 2329.14468 L 3069.198491 2235.040819 L 3091.628039 2140.059825 L 3113.30576 2043.324565 L 3135.860613 1946.71461 L 3158.290162 1849.227521 L 3180.845015 1752.492261 L 3203.399868 1657.511267 L 3224.952284 1563.282102 L 3247.507137 1470.055375 L 3270.061991 1379.961266 L 3292.491539 1291.621423 L 3315.046393 1205.787676 L 3336.724113 1123.337156 L 3359.153662 1044.14456 L 3381.708515 967.458058 L 3404.138064 895.031918 L 3426.692917 824.986567 L 3448.370637 759.201578 L 3470.800186 696.674512 L 3493.355039 638.282503 L 3515.784588 582.521893 L 3538.339442 530.771035 L 3560.017162 482.52871 L 3582.44671 437.544308 L 3605.001564 395.817829 L 3627.556417 357.474578 L 3649.985966 321.637422 L 3672.540819 289.183494 L 3694.218539 259.110356 L 3716.648088 231.668618 L 3739.202942 206.60767 L 3761.63249 184.178121 L 3784.187344 164.129363 L 3805.865064 144.957737 L 3828.294612 128.292207 L 3850.849466 113.380942 L 3873.279015 99.973335 L 3895.833868 88.319994 L 3917.511588 77.543786 L 3939.941137 68.271236 L 3962.49599 60.001123 L 3985.050844 52.482838 L 4007.480392 45.841687 L 4029.158113 39.952364 L 4051.712966 34.940175 L 4074.142515 30.805118 L 4096.697368 26.670062 L 4119.126917 23.286834 L 4140.804637 20.780739 L 4163.35949 18.274644 L 4185.789039 16.645682 L 4208.343892 14.139587 L 4230.898746 12.510626 L 4252.451161 11.633493 L 4275.006015 10.881664 L 4297.560868 9.127398 L 4319.990417 8.375569 L 4342.54527 8.375569 L 4364.22299 7.498436 L 4386.652539 6.621303 L 4409.207392 6.621303 L 4431.636941 5.869475 L 4476.621343 5.869475 " transform="matrix(0.031174,0,0,-0.031174,3.78565,112.6361)"/>
</g>
<g clip-path="url(#clip3)" clip-rule="nonzero">
<path style="fill:none;stroke-width:20;stroke-linecap:butt;stroke-linejoin:round;stroke:rgb(0%,0%,100%);stroke-opacity:1;stroke-miterlimit:10;" d="M 53.363981 4.992341 L 857.444505 4.992341 L 879.999358 5.869475 L 946.661481 5.869475 L 969.216334 6.621303 L 991.645883 6.621303 L 1014.200736 7.498436 L 1036.630285 8.375569 L 1058.308005 8.375569 L 1080.862858 9.127398 L 1103.292407 10.881664 L 1125.847261 11.633493 L 1148.402114 12.510626 L 1169.954529 14.139587 L 1192.509383 16.645682 L 1214.938931 18.274644 L 1260.048638 23.286834 L 1281.726359 26.670062 L 1304.155907 30.805118 L 1326.710761 34.940175 L 1349.140309 39.952364 L 1371.695163 45.841687 L 1393.372883 52.482838 L 1415.802432 60.001123 L 1438.357285 68.271236 L 1460.786834 77.543786 L 1483.341687 88.319994 L 1505.019407 99.973335 L 1527.448956 113.380942 L 1550.003809 128.292207 L 1572.558663 144.957737 L 1594.988211 164.129363 L 1616.665932 184.178121 L 1639.220785 206.60767 L 1661.650334 231.668618 L 1684.205187 259.110356 L 1706.634736 289.183494 L 1728.312456 321.637422 L 1750.867309 357.474578 L 1773.296858 395.817829 L 1795.851711 437.544308 L 1818.28126 482.52871 L 1840.836113 530.771035 L 1862.513834 582.521893 L 1884.943382 638.282503 L 1907.498236 696.674512 L 1930.053089 759.201578 L 1952.482638 824.986567 L 1974.160358 895.031918 L 1996.715211 967.458058 L 2019.14476 1044.14456 L 2041.699613 1123.337156 L 2064.129162 1205.787676 L 2085.806882 1291.621423 L 2108.361736 1379.961266 L 2130.791284 1470.055375 L 2153.346138 1563.282102 L 2175.900991 1657.511267 L 2197.453407 1752.492261 L 2220.00826 1849.227521 L 2242.437809 1946.71461 L 2264.992662 2043.324565 " transform="matrix(0.031174,0,0,-0.031174,3.78565,112.6361)"/>
</g>
<g clip-path="url(#clip4)" clip-rule="nonzero">
<path style="fill:none;stroke-width:20;stroke-linecap:butt;stroke-linejoin:round;stroke:rgb(0%,0%,100%);stroke-opacity:1;stroke-miterlimit:10;" d="M 9.131408 4.992341 L 53.363981 4.992341 " transform="matrix(0.031174,0,0,-0.031174,3.78565,112.6361)"/>
</g>
<g clip-path="url(#clip5)" clip-rule="nonzero">
<path style="fill:none;stroke-width:20;stroke-linecap:butt;stroke-linejoin:round;stroke:rgb(0%,0%,0%);stroke-opacity:1;stroke-miterlimit:10;" d="M 2264.992662 1542.481515 L 2287.547516 1515.039777 L 2309.225236 1487.472734 L 2331.654784 1458.276729 L 2354.209638 1429.206029 L 2376.639187 1399.132891 L 2399.19404 1369.185058 L 2420.87176 1337.482959 L 2443.301309 1306.657992 L 2465.856162 1274.955893 L 2488.285711 1243.379098 L 2510.840564 1210.799865 L 2532.518284 1179.223071 L 2554.947833 1146.643838 L 2577.502687 1114.18991 L 2600.05754 1081.610677 L 2622.487089 1049.156749 L 2644.164809 1017.45465 L 2666.719662 985.000722 L 2689.149211 953.298622 L 2711.704064 922.473656 L 2734.133613 890.771556 L 2756.688466 859.94659 L 2778.366187 829.998757 L 2800.795735 799.173791 L 2823.350589 769.977786 L 2845.780137 740.781781 L 2868.334991 712.46291 L 2890.012711 684.144038 L 2912.44226 656.7023 L 2957.551966 603.32248 L 2979.981515 578.386837 L 3001.659235 553.325889 L 3024.214089 528.390245 L 3046.643637 504.958258 L 3069.198491 481.651577 L 3091.628039 459.973856 L 3113.30576 438.296136 L 3135.860613 416.618416 L 3158.290162 396.694962 L 3203.399868 358.351711 L 3224.952284 340.057219 L 3247.507137 322.514555 L 3270.061991 305.849025 L 3292.491539 289.183494 L 3315.046393 274.146925 L 3336.724113 259.110356 L 3359.153662 244.199092 L 3381.708515 230.791485 L 3404.138064 217.509182 L 3426.692917 204.978708 L 3448.370637 193.325367 L 3470.800186 181.672026 L 3493.355039 170.770514 L 3515.784588 160.871439 L 3538.339442 150.84706 L 3560.017162 141.699814 L 3582.44671 133.304396 L 3605.001564 125.034283 L 3627.556417 116.638866 L 3649.985966 109.120581 L 3672.540819 102.47943 L 3694.218539 95.838279 L 3716.648088 89.197127 L 3739.202942 83.307805 L 3761.63249 78.295615 L 3784.187344 72.531597 L 3805.865064 67.519407 L 3828.294612 63.384351 L 3850.849466 59.12399 L 3873.279015 54.988933 L 3895.833868 50.853877 L 3917.511588 47.470649 L 3939.941137 44.212725 L 3962.49599 40.829497 L 3985.050844 38.323403 L 4007.480392 35.817308 L 4029.158113 33.311213 L 4051.712966 30.805118 L 4074.142515 29.176156 L 4096.697368 26.670062 L 4119.126917 25.0411 L 4140.804637 23.286834 L 4163.35949 21.657872 L 4185.789039 20.02891 L 4208.343892 19.151777 L 4230.898746 17.522815 L 4252.451161 16.645682 L 4275.006015 15.893854 L 4297.560868 14.139587 L 4319.990417 13.387759 L 4342.54527 12.510626 L 4364.22299 11.633493 L 4386.652539 11.633493 L 4409.207392 10.881664 L 4431.636941 10.004531 L 4454.191794 10.004531 L 4476.621343 9.127398 " transform="matrix(0.031174,0,0,-0.031174,3.78565,112.6361)"/>
</g>
<path style="fill:none;stroke-width:20;stroke-linecap:butt;stroke-linejoin:round;stroke:rgb(0%,0%,0%);stroke-opacity:1;stroke-miterlimit:10;" d="M 53.363981 150.84706 L 75.79353 160.871439 L 98.348383 170.770514 L 120.777932 181.672026 L 142.455652 193.325367 L 165.010506 204.978708 L 187.565359 217.509182 L 209.994908 230.791485 L 232.549761 244.199092 L 254.227481 259.110356 L 276.65703 274.146925 L 299.211883 289.183494 L 321.641432 305.849025 L 344.196285 322.514555 L 365.874006 340.057219 L 388.303554 358.351711 L 410.858408 377.523337 L 433.287956 396.694962 L 455.84281 416.618416 L 477.52053 438.296136 L 499.950079 459.973856 L 522.504932 481.651577 L 545.059785 504.958258 L 567.489334 528.390245 L 589.167054 553.325889 L 611.721908 578.386837 L 634.151456 603.32248 L 656.70631 630.01239 L 679.135858 656.7023 L 700.813579 684.144038 L 723.368432 712.46291 L 745.797981 740.781781 L 768.352834 769.977786 L 790.782383 799.173791 L 812.460103 829.998757 L 835.014956 859.94659 L 857.444505 890.771556 L 879.999358 922.473656 L 902.554212 953.298622 L 924.983761 985.000722 L 946.661481 1017.45465 L 969.216334 1049.156749 L 991.645883 1081.610677 L 1014.200736 1114.18991 L 1036.630285 1146.643838 L 1058.308005 1179.223071 L 1080.862858 1210.799865 L 1103.292407 1243.379098 L 1125.847261 1274.955893 L 1148.402114 1306.657992 L 1169.954529 1337.482959 L 1192.509383 1369.185058 L 1214.938931 1399.132891 L 1237.493785 1429.206029 L 1260.048638 1458.276729 L 1281.726359 1487.472734 L 1304.155907 1515.039777 L 1326.710761 1542.481515 L 1349.140309 1569.171425 L 1371.695163 1594.984202 L 1393.372883 1619.168017 L 1415.802432 1643.351832 L 1438.357285 1665.78138 L 1460.786834 1687.459101 L 1483.341687 1708.384992 L 1505.019407 1727.556618 L 1527.448956 1744.973977 L 1550.003809 1762.51664 L 1572.558663 1777.553209 L 1594.988211 1791.712645 L 1616.665932 1804.117815 L 1639.220785 1815.771155 L 1661.650334 1825.795535 L 1684.205187 1834.190952 L 1706.634736 1840.832104 L 1728.312456 1845.844293 L 1750.867309 1849.97935 L 1773.296858 1852.485445 L 1795.851711 1853.362578 L 1818.28126 1852.485445 L 1840.836113 1849.97935 L 1862.513834 1845.844293 L 1884.943382 1840.832104 L 1907.498236 1834.190952 L 1930.053089 1825.795535 L 1952.482638 1815.771155 L 1974.160358 1804.117815 L 1996.715211 1791.712645 L 2019.14476 1777.553209 L 2041.699613 1762.51664 L 2064.129162 1744.973977 L 2085.806882 1727.556618 L 2108.361736 1708.384992 L 2130.791284 1687.459101 L 2153.346138 1665.78138 L 2175.900991 1643.351832 L 2197.453407 1619.168017 L 2220.00826 1594.984202 L 2242.437809 1569.171425 L 2264.992662 1542.481515 " transform="matrix(0.031174,0,0,-0.031174,3.78565,112.6361)"/>
<g clip-path="url(#clip6)" clip-rule="nonzero">
<path style="fill:none;stroke-width:20;stroke-linecap:butt;stroke-linejoin:round;stroke:rgb(0%,0%,0%);stroke-opacity:1;stroke-miterlimit:10;" d="M 9.131408 133.304396 L 30.809128 141.699814 L 53.363981 150.84706 " transform="matrix(0.031174,0,0,-0.031174,3.78565,112.6361)"/>
</g>
<path style="fill:none;stroke-width:5;stroke-linecap:butt;stroke-linejoin:round;stroke:rgb(0%,0%,100%);stroke-opacity:1;stroke-miterlimit:10;" d="M 2242.437809 325.02065 L 3135.860613 325.02065 " transform="matrix(0.031174,0,0,-0.031174,3.78565,112.6361)"/>
<path style="fill:none;stroke-width:5;stroke-linecap:butt;stroke-linejoin:round;stroke:rgb(0%,0%,100%);stroke-opacity:1;stroke-miterlimit:10;" d="M 2657.447111 356.72275 L 2720.85131 293.318551 " transform="matrix(0.031174,0,0,-0.031174,3.78565,112.6361)"/>
<path style="fill:none;stroke-width:5;stroke-linecap:butt;stroke-linejoin:round;stroke:rgb(0%,0%,100%);stroke-opacity:1;stroke-miterlimit:10;" d="M 2720.85131 356.72275 L 2657.447111 293.318551 " transform="matrix(0.031174,0,0,-0.031174,3.78565,112.6361)"/>
<path style="fill:none;stroke-width:5;stroke-linecap:butt;stroke-linejoin:round;stroke:rgb(0%,0%,0%);stroke-opacity:1;stroke-miterlimit:10;" d="M 1021.719021 165.006496 L 2569.232574 165.006496 " transform="matrix(0.031174,0,0,-0.031174,3.78565,112.6361)"/>
<path style="fill:none;stroke-width:5;stroke-linecap:butt;stroke-linejoin:round;stroke:rgb(0%,0%,0%);stroke-opacity:1;stroke-miterlimit:10;" d="M 1764.149612 196.708595 L 1827.553811 133.304396 " transform="matrix(0.031174,0,0,-0.031174,3.78565,112.6361)"/>
<path style="fill:none;stroke-width:5;stroke-linecap:butt;stroke-linejoin:round;stroke:rgb(0%,0%,0%);stroke-opacity:1;stroke-miterlimit:10;" d="M 1827.553811 196.708595 L 1764.149612 133.304396 " transform="matrix(0.031174,0,0,-0.031174,3.78565,112.6361)"/>
</g>
</svg>
